# xmcd
#
# Track frame offsets: 
#        150
#        26921
#        47734
#        67635
#        90932
#        112015
#        130225
#        155736
#        172128
#        191270
#        207116
#        229534
#
# Disc length: 3296 seconds
#
# Revision: 0
# Processed by: cddbd v1.5PL3 Copyright (c) Steve Scherf et al.
# Submitted via: ExactAudioCopy v0.95a3
#
DISCID=990cde0c
DTITLE=Karim albert Kook - Je roule vers toi
DYEAR=2000
DGENRE=blues
TTITLE0=Tout va bien
TTITLE1=Je roule vers toi
TTITLE2=Les gens changent
TTITLE3=Boogie-woogie et gris-gris
TTITLE4=Le blues du guérisseur
TTITLE5=Loin du Mississippi
TTITLE6=C'est jamais assez
TTITLE7=ne regarde pas derrière
TTITLE8=fais-moi confiance
TTITLE9=franky, mon ami
TTITLE10=La chanson du delta
TTITLE11=The voodoo Hut
EXTD=
EXTT0=
EXTT1=
EXTT2=
EXTT3=
EXTT4=
EXTT5=
EXTT6=
EXTT7=
EXTT8=
EXTT9=
EXTT10=
EXTT11=
PLAYORDER=
